<?xml version="1.0" standalone="no"?>
<!DOCTYPE svg PUBLIC "-//W3C//DTD SVG 20010904//EN"
 "http://www.w3.org/TR/2001/REC-SVG-20010904/DTD/svg10.dtd">
<svg version="1.0" xmlns="http://www.w3.org/2000/svg"
 width="220.000000pt" height="197.000000pt" viewBox="0 0 220.000000 197.000000"
 preserveAspectRatio="xMidYMid meet">

<g transform="translate(0.000000,197.000000) scale(0.100000,-0.100000)"
fill="#000000" stroke="none">
<path d="M1010 1859 c-63 -8 -100 -21 -143 -51 -27 -19 -30 -20 -39 -5 -11 20
-57 23 -59 5 -1 -7 -2 -20 -3 -28 0 -8 -8 -13 -16 -11 -33 8 -72 4 -81 -10
-14 -22 -11 -30 27 -65 l35 -34 -19 -27 c-33 -48 -45 -101 -39 -175 5 -55 3
-68 -8 -68 -8 0 -22 -11 -31 -25 -31 -47 9 -156 65 -178 20 -7 32 -21 40 -47
12 -41 71 -115 113 -140 l29 -17 -48 -18 c-25 -10 -66 -37 -90 -61 -23 -24
-52 -48 -63 -54 -14 -7 -20 -21 -20 -43 0 -18 -9 -61 -20 -95 -34 -107 -21
-191 34 -227 34 -23 33 -36 -5 -58 l-32 -18 5 39 c9 62 -2 72 -82 72 -56 0
-74 4 -89 19 -19 19 -19 20 5 95 31 99 40 195 24 269 -13 67 -31 79 -65 47
l-23 -22 -7 34 c-4 18 -18 54 -31 81 -33 65 -54 62 -90 -10 -16 -32 -30 -60
-32 -62 -1 -3 -15 8 -30 22 -39 38 -59 35 -71 -10 -26 -94 -9 -238 44 -363 29
-69 30 -80 10 -80 -10 0 -15 -10 -15 -32 1 -46 26 -219 35 -241 6 -15 0 -17
-64 -17 -41 0 -71 -4 -71 -10 0 -7 338 -10 995 -10 657 0 995 3 995 10 0 6
-25 10 -55 10 -50 0 -56 3 -65 24 -10 28 -38 46 -72 46 -42 0 -88 89 -88 170
0 71 -14 77 -68 31 -40 -35 -57 -32 -130 20 -29 20 -72 43 -96 50 -43 13 -43
13 -60 83 -10 39 -20 89 -23 111 -4 33 -16 50 -72 102 -36 35 -85 70 -108 79
l-43 17 40 28 c43 31 83 85 101 137 6 17 16 32 23 32 14 0 59 46 75 77 6 12
11 42 11 67 0 34 -5 48 -19 56 -17 8 -19 21 -18 92 0 76 -5 104 -38 182 -7 15
-5 17 13 11 42 -13 26 34 -30 90 -81 80 -213 120 -348 104z m188 -35 l37 -14
-35 5 c-96 16 -130 17 -144 5 -10 -7 -29 -10 -54 -5 -43 7 -86 -6 -119 -37
-13 -12 -25 -19 -29 -16 -11 12 68 61 119 74 61 16 170 10 225 -12z m-396 -49
c3 -13 1 -22 -3 -19 -9 5 -13 44 -5 44 2 0 6 -11 8 -25z m-45 -143 c-29 -32
-47 -90 -48 -159 l-2 -68 -9 56 c-7 38 -6 68 1 96 12 43 46 93 63 93 6 0 4 -8
-5 -18z m166 -172 c25 0 28 3 24 21 -3 11 -2 19 1 17 111 -59 126 -63 229 -63
l101 1 6 -46 c3 -25 15 -62 26 -83 26 -47 25 -110 -1 -167 -28 -63 -64 -98
-134 -131 -106 -51 -255 -37 -338 32 -49 40 -88 118 -94 188 -5 50 -2 61 26
106 18 29 36 77 43 112 l11 60 35 -23 c19 -13 48 -24 65 -24z m-217 -130 c14
-40 18 -120 6 -120 -16 0 -50 46 -60 80 -20 74 29 110 54 40z m724 -7 c0 -30
-37 -100 -57 -107 -21 -8 -16 61 8 111 17 35 24 41 35 32 8 -6 14 -23 14 -36z
m-1076 -291 c8 -16 20 -50 27 -76 11 -43 10 -51 -13 -94 -29 -54 -53 -126 -64
-192 l-8 -45 -7 40 c-13 67 -10 186 7 260 9 39 19 85 21 103 6 40 18 41 37 4z
m-115 -206 c-1 -67 4 -150 10 -185 14 -75 10 -87 -13 -32 -38 95 -56 195 -55
294 l2 98 28 -27 c29 -28 29 -28 28 -148z m703 105 c21 -38 82 -56 134 -42 41
11 74 37 74 58 0 28 120 -18 159 -61 l24 -26 -298 0 -299 0 29 30 c33 34 100
69 135 69 17 1 30 -8 42 -28z m148 15 c32 6 34 5 19 -10 -32 -35 -149 -28
-149 9 0 9 11 10 47 4 26 -5 63 -6 83 -3z m-607 -126 c0 -74 -18 -162 -48
-234 -14 -34 -18 -36 -62 -36 l-46 0 6 63 c8 88 38 176 88 258 40 67 43 70 52
48 5 -13 10 -58 10 -99z m903 7 c7 -7 -20 -300 -32 -353 -5 -18 -15 -22 -72
-27 -37 -3 -113 -15 -168 -26 -101 -21 -102 -21 -195 -1 -52 10 -118 22 -146
26 -29 4 -53 11 -53 16 0 5 -9 86 -21 179 -16 138 -18 173 -8 185 11 14 58 15
350 12 186 -2 341 -7 345 -11z m-701 -252 l7 -70 -23 22 c-25 24 -31 85 -15
158 l9 40 7 -40 c4 -22 11 -71 15 -110z m744 37 c1 -39 -21 -102 -35 -102 -7
0 3 115 13 165 l6 30 8 -25 c4 -14 7 -44 8 -68z m-979 -97 c-14 -16 -130 -21
-205 -8 l-40 7 30 7 c17 4 74 7 129 8 86 1 97 -1 86 -14z m1109 -32 c-18 -21
-39 -15 -39 10 0 33 10 40 32 21 14 -13 15 -20 7 -31z m221 7 c0 -24 -3 -28
-17 -23 -33 11 -34 15 -17 34 24 27 34 24 34 -11z m-1163 -65 c-4 -42 -14 -89
-22 -105 -17 -33 -61 -60 -98 -60 -22 0 -25 5 -31 61 -3 34 -6 88 -6 120 l0
59 81 0 82 0 -6 -75z m1128 21 c33 -23 64 -56 65 -70 0 -4 -11 -5 -25 -2 -18
5 -25 2 -25 -8 0 -18 30 -30 43 -17 14 14 49 -34 45 -61 -3 -20 -8 -23 -53
-21 -27 1 -52 2 -54 2 -2 1 4 12 13 26 23 35 20 45 -14 45 -31 0 -39 -17 -19
-37 18 -18 3 -43 -25 -43 -63 0 -105 34 -106 86 0 45 29 122 48 127 28 8 75
-4 107 -27z m-1307 -80 c-5 -98 -12 -106 -104 -106 -89 0 -98 10 -109 113 l-7
67 112 0 112 0 -4 -74z m420 38 c63 -13 80 -20 67 -27 -11 -6 -39 -3 -82 7
-43 11 -69 14 -76 7 -6 -6 -18 -5 -35 2 -22 10 -27 8 -53 -23 -31 -36 -41 -21
-13 18 31 45 46 46 192 16z m509 4 c7 -6 13 -18 13 -27 -1 -14 -3 -13 -15 3
-11 15 -23 17 -67 12 -29 -3 -63 -6 -75 -6 -13 0 -23 -5 -23 -11 0 -5 -5 -7
-10 -4 -6 4 -17 1 -25 -5 -8 -6 -20 -8 -26 -4 -8 4 -9 3 -5 -4 5 -8 -2 -12
-19 -12 -16 0 -24 4 -20 11 5 7 2 7 -11 0 -11 -5 -40 -13 -67 -16 -42 -6 -46
-8 -32 -21 17 -18 20 -34 5 -34 -5 0 -10 7 -10 15 0 8 -4 15 -9 15 -5 0 -16 3
-25 6 -12 5 -16 0 -16 -17 -1 -23 -1 -23 -14 -6 -14 18 -14 18 -19 0 -3 -12
-5 -9 -6 9 -1 29 -10 25 136 63 106 26 277 54 303 49 14 -3 31 -10 37 -16z
m-249 -75 c-10 -2 -26 -2 -35 0 -10 3 -2 5 17 5 19 0 27 -2 18 -5z m417 -18
c14 -13 25 -31 25 -40 0 -18 -30 -21 -30 -2 0 6 -5 4 -11 -5 -7 -13 -23 -18
-58 -18 -58 0 -63 4 -48 38 24 57 80 70 122 27z m-675 -25 l0 -30 -67 1 c-52
1 -62 3 -41 9 15 4 39 18 54 29 38 30 54 27 54 -9z m240 10 c0 -5 -13 -10 -30
-10 -16 0 -30 5 -30 10 0 6 14 10 30 10 17 0 30 -4 30 -10z m834 -6 c25 -25
19 -34 -24 -34 -32 0 -40 4 -40 18 0 35 36 44 64 16z m-1284 -24 c0 -5 -5 -10
-11 -10 -5 0 -7 5 -4 10 3 6 8 10 11 10 2 0 4 -4 4 -10z"/>
<path d="M851 1306 c-9 -11 -1 -13 44 -13 45 0 53 2 44 13 -6 8 -26 14 -44 14
-18 0 -38 -6 -44 -14z"/>
<path d="M1141 1306 c-9 -11 -2 -13 43 -12 44 0 53 3 44 13 -14 17 -73 17 -87
-1z"/>
<path d="M886 1254 c-21 -20 -20 -58 0 -79 20 -20 35 -15 53 17 13 23 13 29
-2 52 -20 30 -30 32 -51 10z m44 -30 c0 -8 -4 -14 -10 -14 -5 0 -10 9 -10 21
0 11 5 17 10 14 6 -3 10 -13 10 -21z"/>
<path d="M1150 1251 c-24 -46 3 -101 40 -81 27 15 34 47 16 75 -20 30 -42 32
-56 6z m30 -27 c0 -14 -12 -19 -23 -8 -9 9 4 35 14 28 5 -3 9 -12 9 -20z"/>
<path d="M950 1100 c0 -15 43 -40 70 -40 15 0 35 7 46 16 18 15 17 15 -14 10
-19 -3 -48 0 -68 9 -19 8 -34 10 -34 5z"/>
<path d="M1005 636 c-19 -29 -10 -54 21 -62 30 -8 54 11 54 40 0 47 -49 62
-75 22z"/>
<path d="M1633 366 c7 -21 35 -30 51 -17 25 21 19 29 -19 28 -20 -1 -34 -5
-32 -11z"/>
</g>
</svg>
