<svg
  xmlns="http://www.w3.org/2000/svg"
  data-name="Layer 1"
  viewBox="-5.0 -10.0 110.0 135.0"
  fill="currentColor"
  stroke-width="1"
  width="30"
  height="30"
>
    <title>trending posts</title>
    <path
    d="M20.07,93.7A4.9,4.9,0,0,0,25,88.81V77a4.9,4.9,0,0,0-4.89-4.89H10.89A4.9,4.9,0,0,0,6,77V88.81a4.9,4.9,0,0,0,4.89,4.89ZM9,88.81V77a1.89,1.89,0,0,1,1.89-1.89h9.18A1.89,1.89,0,0,1,22,77V88.81a1.89,1.89,0,0,1-1.89,1.89H10.89A1.89,1.89,0,0,1,9,88.81ZM42.82,68.13H33.64A4.9,4.9,0,0,0,28.75,73v15.8a4.9,4.9,0,0,0,4.89,4.89h9.18a4.9,4.9,0,0,0,4.89-4.89V73A4.9,4.9,0,0,0,42.82,68.13Zm1.89,20.69a1.89,1.89,0,0,1-1.89,1.89H33.64a1.89,1.89,0,0,1-1.89-1.89V73a1.89,1.89,0,0,1,1.89-1.89h9.18A1.89,1.89,0,0,1,44.71,73ZM56.38,93.7h9.18a4.9,4.9,0,0,0,4.89-4.89V64.08a4.9,4.9,0,0,0-4.89-4.89H56.38a4.9,4.9,0,0,0-4.89,4.89V88.81A4.9,4.9,0,0,0,56.38,93.7ZM54.49,64.08a1.89,1.89,0,0,1,1.89-1.89h9.18a1.89,1.89,0,0,1,1.89,1.89V88.81a1.89,1.89,0,0,1-1.89,1.89H56.38a1.89,1.89,0,0,1-1.89-1.89Zm38.7-16.85a4.93,4.93,0,0,0-4.89-5H79.12a4.93,4.93,0,0,0-4.89,5v41.5a4.93,4.93,0,0,0,4.89,5H88.3a4.93,4.93,0,0,0,4.89-5Zm-3,41.5a1.93,1.93,0,0,1-1.89,2H79.12a1.93,1.93,0,0,1-1.89-2V47.24a1.93,1.93,0,0,1,1.89-2H88.3a1.93,1.93,0,0,1,1.89,2Zm-83-22.23c.1,0,1,.07,2.69.07A90.87,90.87,0,0,0,37.56,61.9,93,93,0,0,0,64.71,47.73,98,98,0,0,0,87,23.94L87.64,27a5,5,0,0,0,5.89,3.82,5,5,0,0,0,3.82-5.89L94.21,10.23a5,5,0,0,0-5.89-3.82L73.6,9.55a5,5,0,0,0,2.07,9.71l2.92-.62c-11,16.42-25.8,27.77-43.93,33.77a82.45,82.45,0,0,1-25,4.25c-1.09,0-1.73,0-1.82,0h0a5,5,0,0,0-.71,9.9Zm.37-6.92h.14c.55,0,1.65.05,2,.05a85.59,85.59,0,0,0,25.93-4.4c19.9-6.58,35.88-19.38,47.48-38a1.5,1.5,0,0,0-1.59-2.26L75,16.33a2,2,0,0,1-2.33-1.51,2,2,0,0,1,1.51-2.33L88.94,9.34a2,2,0,0,1,2.33,1.51l3.14,14.72a2,2,0,0,1-1.51,2.33,2,2,0,0,1-2.33-1.51l-1.42-6.63a1.5,1.5,0,0,0-2.74-.48A96,96,0,0,1,62.9,45.33,90,90,0,0,1,36.63,59,87.78,87.78,0,0,1,9.83,63.59c-1.56,0-2.43-.06-2.47-.07a2,2,0,0,1-1.82-2.1A2,2,0,0,1,7.51,59.6Z"
  ></path>
</svg>